<svg id="Layer_1" data-name="Layer 1" xmlns="http://www.w3.org/2000/svg" viewBox="0 0 788 288"><defs><style>.cls-1{fill:#fff;}</style></defs><rect class="cls-1" width="788" height="288"/><path d="M411.17,80.67,394.58,45.93l-17.49,34.3-38.17,5,27.22,27.23-7,37.86,34.31-17.47,33.85,18.36-6-38L449.2,86.71ZM409,125.43l-15.38-8.35L378.07,125l3.18-17.2L368.87,95.44l17.35-2.29,7.95-15.59,7.54,15.78L419,96.09l-12.69,12Z"/><path d="M466.2,25.24V6.61H321.8V25.24H284.55v72a52.36,52.36,0,0,0,3.28,18.35,53.32,53.32,0,0,0,9.06,15.76,54.23,54.23,0,0,0,13.76,11.77,53.61,53.61,0,0,0,12.53,5.51,70.25,70.25,0,0,0,6,17.91,71.72,71.72,0,0,0,13.4,18.88,73.6,73.6,0,0,0,18.58,13.6,71.73,71.73,0,0,0,16.57,6.05v11.06H321.8v32.59H303.18v32.63H478.81l6-1.72V248.76H466.2V216.17H410.32V205.11a71.63,71.63,0,0,0,16.57-6.06,73.31,73.31,0,0,0,18.6-13.61,71.53,71.53,0,0,0,13.37-18.85,70,70,0,0,0,6-17.92,53.32,53.32,0,0,0,12.52-5.5,54.51,54.51,0,0,0,13.8-11.81,53.34,53.34,0,0,0,9-15.7,52.22,52.22,0,0,0,3.28-18.37V25.24Zm-158.55,97.2A39.67,39.67,0,0,1,301,110.78a38.26,38.26,0,0,1-2.41-13.49v-58h23.29l0,4.62H303.18V97.28a34.78,34.78,0,0,0,1.63,10.62,34.16,34.16,0,0,0,4.75,9.58,35.32,35.32,0,0,0,7.36,7.64,33.29,33.29,0,0,0,5.39,3.33l0,5a41.32,41.32,0,0,1-4.48-2.32A40.52,40.52,0,0,1,307.65,122.44ZM321.8,57.86v52.61c-.28-.35-.55-.71-.82-1.08a20.36,20.36,0,0,1-2.82-5.7,21.06,21.06,0,0,1-1-6.4V57.86ZM396.32,206.3v9.87h-4.63V206.3Zm74.51,56.46v4.63H317.18v-4.63H470.83ZM452.2,230.17v18.59H335.8V230.17H452.2Zm-16.66-54.58a59.39,59.39,0,0,1-15,11,57.74,57.74,0,0,1-17.74,5.7H385.25a57.65,57.65,0,0,1-17.74-5.7,59.34,59.34,0,0,1-15-11,57.52,57.52,0,0,1-10.77-15.19,55.87,55.87,0,0,1-5.33-17.94L335.8,32.2V20.61H452.2V32.16s0,0,0,0l-.58,110.39a56.38,56.38,0,0,1-5.32,17.84A57.43,57.43,0,0,1,435.54,175.59ZM489.45,97.3A38.53,38.53,0,0,1,487,110.81a39.7,39.7,0,0,1-6.65,11.6,40.8,40.8,0,0,1-10.25,8.76,41.32,41.32,0,0,1-4.48,2.32l0-5.1a34.79,34.79,0,0,0,12.74-11.14,37.56,37.56,0,0,0,4.64-9.29,32.93,32.93,0,0,0,1.75-10.68V43.86H466.13l0-4.62h23.29Zm-23.25,13V57.86h4.62V97.29a18.9,18.9,0,0,1-1,6.19,23.57,23.57,0,0,1-2.9,5.81C466.68,109.62,466.44,109.94,466.2,110.26Z"/></svg>