<svg id="Layer_1" data-name="Layer 1" xmlns="http://www.w3.org/2000/svg" viewBox="0 0 788 288"><defs><style>.cls-1{fill:#fff;}</style></defs><rect class="cls-1" width="788" height="288"/><path d="M263.91,84.09A53.89,53.89,0,1,0,317.8,138,53.9,53.9,0,0,0,263.91,84.09Zm-21.47,32.69h31l-4.71,7.53h-31Zm51.75,37.64-4.71-7.52H275.74l4.71-7.53h4.35L279.55,131,264.9,154.42H225.83l9.41-15h-6.91l4.7-7.53h30.2l-4.7,7.53H244.12l-4.7,7.53h21.3l18.83-30.12,23.52,37.64Z"/><path d="M578,120.75H562.62l-16.4,34-16.74-34h-16.4l24.71,50.35-16.51,32.81h15.93ZM479,166c-8.89,0-16.06-6.81-16.06-16.51S470.12,133,479,133s16.05,6.82,16.05,16.52S488,166,479,166m-2.54,13.17A27,27,0,0,0,495,172v6.35h14.66V120.75H495v6.35a25.18,25.18,0,0,0-17.9-7.27c-15,0-28.65,12.47-28.65,29.68s13.4,29.68,28.07,29.68M440.78,92.92l-14.66,4.62v80.84h14.66Zm-50.93,42.39H371.38V111.75h18.47c7.63,0,12.94,4.85,12.94,11.78s-5.31,11.78-12.94,11.78M355.44,97.54v80.84h15.94V148.93H391c15.82,0,27.6-11,27.6-25.87s-11.32-25.52-27-25.52Z"/></svg>