<svg id="Layer_1" data-name="Layer 1" xmlns="http://www.w3.org/2000/svg" xmlns:xlink="http://www.w3.org/1999/xlink" viewBox="0 0 788 288"><defs><style>.cls-1{fill:none;}.cls-2{fill:#fff;}.cls-3{clip-path:url(#clip-path);}.cls-4{clip-path:url(#clip-path-2);}</style><clipPath id="clip-path"><rect class="cls-1" x="280.21" y="2.61" width="227.58" height="282.77"/></clipPath><clipPath id="clip-path-2"><rect class="cls-1" x="280.21" y="2.61" width="227.58" height="282.77"/></clipPath></defs><rect class="cls-2" width="788" height="288"/><g id="Perks"><g class="cls-3"><g class="cls-4"><path d="M437.1,40.27a202.17,202.17,0,0,0,15.61,17.42,205.62,205.62,0,0,0,17.43,15.62,213.87,213.87,0,0,0-33,33,214.53,214.53,0,0,0-33.05-33,205.62,205.62,0,0,0,17.43-15.62A203.8,203.8,0,0,0,437.1,40.27m0-37.66c0,19.46-51.24,70.7-70.7,70.7,19.46,0,70.7,51.25,70.7,70.69,0-19.44,51.23-70.69,70.69-70.69-19.46,0-70.69-51.24-70.69-70.7M330.82,86.52c2.11,2.38,4.25,4.62,6.31,6.68s4.3,4.2,6.68,6.31c-2.38,2.11-4.62,4.25-6.68,6.31s-4.2,4.3-6.31,6.68c-2.11-2.38-4.24-4.62-6.31-6.68s-4.3-4.2-6.68-6.31c2.38-2.11,4.63-4.25,6.68-6.31s4.2-4.3,6.31-6.68m0-34.24c0,13-34.23,47.23-47.23,47.23,13,0,47.23,34.24,47.23,47.23,0-13,34.24-47.23,47.24-47.23-13,0-47.24-34.24-47.24-47.23M505,202.65l-36.6-45.55-75.79-15.88L316.81,157.1l-36.6,45.55,36.6,10.72V262.9l75.78,22.49,75.79-22.49V213.37Zm-72.56,2.93-12.77-15.89L462,177.28l12.77,15.89Zm.19-38-40,11.73-40-11.73,40-8.38Zm-109.45,9.71,42.37,12.41-12.76,15.89-42.38-12.41Zm60.64,87.15-49.4-14.66V218.52l24.71,7.24L383.8,195Zm67-14.66-49.4,14.66V195l24.69,30.72,24.71-7.24Z"/></g></g></g></svg>