<svg  width="200" height="150"  viewBox="0 0 1786 1178"  fill="none" xmlns="http://www.w3.org/2000/svg">
<g id="Xbox">
<path id="Xbox-x1" d="M705.733 677.708L663.733 620H684.453L716.187 663.746L747.92 620H768.64L726.453 677.708L772 741H751.653L716.187 691.855L680.533 741H660L705.733 677.708Z" fill="white" stroke="white"/>
<path id="Xbox-x2" d="M1041.73 677.708L999.733 620H1020.45L1052.19 663.746L1083.92 620H1104.64L1062.45 677.708L1108 741H1087.65L1052.19 691.855L1016.53 741H996L1041.73 677.708Z" fill="white" stroke="white"/>
<g id="Xbox-b">
<path fill-rule="evenodd" clip-rule="evenodd" d="M842.393 620.186L781.767 620L781.767 671.458H766.097L755 686.985H781.767V741L842.953 740.627C866.084 740.627 879.888 725.712 878.956 706.881C878.956 689.729 867.576 681.525 858.436 677.983C867.763 672.763 874.515 664.064 874.105 650.949C874.128 635.228 862.723 621.69 842.393 620.186ZM800.421 635.475V671.458H838.289C848.362 671.085 855.441 665.491 856.011 653.559C856.229 642.872 850.228 637.525 838.289 635.475H800.421ZM800.421 724.966V686.985H840.528C854.903 688.122 860.488 694.39 860.488 708.559C858.436 720.305 852.093 723.847 840.528 724.966H800.421Z" fill="white"/>
<path d="M781.767 620L842.393 620.186C862.723 621.69 874.128 635.228 874.105 650.949C874.515 664.064 867.763 672.763 858.436 677.983C867.576 681.525 878.956 689.729 878.956 706.881C879.888 725.712 866.084 740.627 842.953 740.627L781.767 741V686.985H755L766.097 671.458H781.767M781.767 620C781.767 640.095 781.767 651.362 781.767 671.458M781.767 620L781.767 671.458M800.421 635.475V671.458H838.289C848.362 671.085 855.441 665.491 856.011 653.559C856.229 642.872 850.228 637.525 838.289 635.475H800.421ZM800.421 686.985V724.966H840.528C852.093 723.847 858.436 720.305 860.488 708.559C860.488 694.39 854.903 688.122 840.528 686.985H800.421Z" stroke="white"/>
</g>
<path id="Xbox-o" fill-rule="evenodd" clip-rule="evenodd" d="M944.273 617.028C909.399 617.772 885.098 641.39 886.026 681C886.026 723.029 917.004 744.415 944.273 742.927C981.929 742.927 1004.19 715.777 1002.89 681C1004.75 648.27 982.857 615.913 944.273 617.028ZM904.761 681C904.761 652.548 919.601 633.765 944.273 633.765C967.089 633.765 985.268 650.874 983.599 681C981.929 711.127 968.573 726.563 944.273 726.563C922.198 726.563 904.761 709.826 904.761 681Z" fill="white" stroke="white"/>
<g id="Xbox-logo">
<path d="M814.322 556.022C816.553 534.727 846.474 495.592 884.017 467.295C920.653 499.112 941.963 518.968 953.339 556.022C949.622 571.582 904.832 593.754 884.017 589.458C848.717 586.763 814.322 568.35 814.322 556.022Z" fill="white"/>
<path d="M805.03 549.671C799.454 525.948 828.044 476.672 857.626 443.011C841.277 426.486 827.89 414.992 814.322 414.992C772.692 454.406 775.665 514.74 805.03 549.671Z" fill="white"/>
<path d="M953.339 414.992C934.48 419.027 923.494 429.094 910.036 443.011C936.998 479.477 959.658 502.038 963.189 549.671C994.598 508.95 989.766 443.011 953.339 414.992Z" fill="white"/>
<path d="M936.799 402.851C915.405 403.363 903.159 407.147 884.017 417.607C869.334 409.202 845.917 400.422 831.421 402.851C854.838 383.237 907.062 380.248 936.799 402.851Z" fill="white"/>
<path d="M814.322 556.022C816.553 534.727 846.474 495.592 884.017 467.295C920.653 499.112 941.963 518.968 953.339 556.022C949.622 571.582 904.832 593.754 884.017 589.458C848.717 586.763 814.322 568.35 814.322 556.022Z" stroke="white"/>
<path d="M805.03 549.671C799.454 525.948 828.044 476.672 857.626 443.011C841.277 426.486 827.89 414.992 814.322 414.992C772.692 454.406 775.665 514.74 805.03 549.671Z" stroke="white"/>
<path d="M953.339 414.992C934.48 419.027 923.494 429.094 910.036 443.011C936.998 479.477 959.658 502.038 963.189 549.671C994.598 508.95 989.766 443.011 953.339 414.992Z" stroke="white"/>
<path d="M936.799 402.851C915.405 403.363 903.159 407.147 884.017 417.607C869.334 409.202 845.917 400.422 831.421 402.851C854.838 383.237 907.062 380.248 936.799 402.851Z" stroke="white"/>
</g>
</g>
</svg>
